REM DIRINDEX 1\2,1\3
REM DIRNAME cjc143,folder01,folder02
TITLE ""
FILE "2000 phrasesTrack48.mp3" MP3
  TRACK 01 AUDIO
    TITLE "2:cjc143_1928"
    INDEX 01 00:00:00
  TRACK 02 AUDIO
    TITLE "0:"
    INDEX 01 00:01:11
  TRACK 03 AUDIO
    TITLE "2:cjc143_1929"
    INDEX 01 00:02:02
  TRACK 04 AUDIO
    TITLE "0:"
    INDEX 01 00:03:33
  TRACK 05 AUDIO
    TITLE "2:cjc143_1930"
    INDEX 01 00:03:49
  TRACK 06 AUDIO
    TITLE "0:"
    INDEX 01 00:05:14
  TRACK 07 AUDIO
    TITLE "2:cjc143_1931"
    INDEX 01 00:05:20
  TRACK 08 AUDIO
    TITLE "0:"
    INDEX 01 00:07:00
  TRACK 09 AUDIO
    TITLE "2:cjc143_1932"
    INDEX 01 00:07:07
  TRACK 10 AUDIO
    TITLE "0:"
    INDEX 01 00:08:52
  TRACK 11 AUDIO
    TITLE "2:cjc143_1933"
    INDEX 01 00:08:62
  TRACK 12 AUDIO
    TITLE "0:"
    INDEX 01 00:10:37
  TRACK 13 AUDIO
    TITLE "2:cjc143_1934"
    INDEX 01 00:10:53
  TRACK 14 AUDIO
    TITLE "0:"
    INDEX 01 00:12:30
  TRACK 15 AUDIO
    TITLE "2:cjc143_1935"
    INDEX 01 00:12:38
  TRACK 16 AUDIO
    TITLE "0:"
    INDEX 01 00:14:39
  TRACK 17 AUDIO
    TITLE "2:cjc143_1936"
    INDEX 01 00:14:47
  TRACK 18 AUDIO
    TITLE "0:"
    INDEX 01 00:16:61
  TRACK 19 AUDIO
    TITLE "2:cjc143_1937"
    INDEX 01 00:16:69
  TRACK 20 AUDIO
    TITLE "0:"
    INDEX 01 00:18:48
  TRACK 21 AUDIO
    TITLE "2:cjc143_1938"
    INDEX 01 00:18:56
  TRACK 22 AUDIO
    TITLE "0:"
    INDEX 01 00:20:67
  TRACK 23 AUDIO
    TITLE "2:cjc143_1939"
    INDEX 01 00:21:00
  TRACK 24 AUDIO
    TITLE "0:"
    INDEX 01 00:23:24
  TRACK 25 AUDIO
    TITLE "2:cjc143_1940"
    INDEX 01 00:23:32
  TRACK 26 AUDIO
    TITLE "0:"
    INDEX 01 00:26:05
  TRACK 27 AUDIO
    TITLE "2:cjc143_1941"
    INDEX 01 00:26:52
  TRACK 28 AUDIO
    TITLE "0:"
    INDEX 01 00:28:33
  TRACK 29 AUDIO
    TITLE "2:cjc143_1942"
    INDEX 01 00:28:41
  TRACK 30 AUDIO
    TITLE "0:"
    INDEX 01 00:30:08
  TRACK 31 AUDIO
    TITLE "2:cjc143_1943"
    INDEX 01 00:30:20
  TRACK 32 AUDIO
    TITLE "0:"
    INDEX 01 00:32:03
  TRACK 33 AUDIO
    TITLE "2:cjc143_1944"
    INDEX 01 00:32:48
  TRACK 34 AUDIO
    TITLE "0:"
    INDEX 01 00:34:04
  TRACK 35 AUDIO
    TITLE "2:cjc143_1945"
    INDEX 01 00:34:10
  TRACK 36 AUDIO
    TITLE "0:"
    INDEX 01 00:35:45
  TRACK 37 AUDIO
    TITLE "2:cjc143_1946"
    INDEX 01 00:35:51
  TRACK 38 AUDIO
    TITLE "0:"
    INDEX 01 00:37:36
  TRACK 39 AUDIO
    TITLE "2:cjc143_1947"
    INDEX 01 00:37:44
  TRACK 40 AUDIO
    TITLE "0:"
    INDEX 01 00:39:25
  TRACK 41 AUDIO
    TITLE "2:cjc143_1948"
    INDEX 01 00:39:31
  TRACK 42 AUDIO
    TITLE "0:"
    INDEX 01 00:41:04
  TRACK 43 AUDIO
    TITLE "2:cjc143_1949"
    INDEX 01 00:41:14
  TRACK 44 AUDIO
    TITLE "0:"
    INDEX 01 00:42:53
  TRACK 45 AUDIO
    TITLE "2:cjc143_1950"
    INDEX 01 00:42:61
  TRACK 46 AUDIO
    TITLE "0:"
    INDEX 01 00:44:28
  TRACK 47 AUDIO
    TITLE "2:cjc143_1951"
    INDEX 01 00:44:48
  TRACK 48 AUDIO
    TITLE "0:"
    INDEX 01 00:46:11
  TRACK 49 AUDIO
    TITLE "2:cjc143_1952"
    INDEX 01 00:46:49
  TRACK 50 AUDIO
    TITLE "0:"
    INDEX 01 00:48:08
  TRACK 51 AUDIO
    TITLE "2:cjc143_1953"
    INDEX 01 00:48:20
  TRACK 52 AUDIO
    TITLE "0:"
    INDEX 01 00:49:63
  TRACK 53 AUDIO
    TITLE "2:cjc143_1954"
    INDEX 01 00:50:31
  TRACK 54 AUDIO
    TITLE "0:"
    INDEX 01 00:52:10
  TRACK 55 AUDIO
    TITLE "2:cjc143_1955"
    INDEX 01 00:52:57
  TRACK 56 AUDIO
    TITLE "0:"
    INDEX 01 00:54:23
  TRACK 57 AUDIO
    TITLE "2:cjc143_1956"
    INDEX 01 00:54:29
  TRACK 58 AUDIO
    TITLE "0:"
    INDEX 01 00:55:67
  TRACK 59 AUDIO
    TITLE "2:cjc143_1957"
    INDEX 01 00:56:04
  TRACK 60 AUDIO
    TITLE "0:"
    INDEX 01 00:57:41
  TRACK 61 AUDIO
    TITLE "2:cjc143_1958"
    INDEX 01 00:57:50
  TRACK 62 AUDIO
    TITLE "0:"
    INDEX 01 00:59:08
  TRACK 63 AUDIO
    TITLE "2:cjc143_1959"
    INDEX 01 00:59:18
  TRACK 64 AUDIO
    TITLE "0:"
    INDEX 01 01:00:47
  TRACK 65 AUDIO
    TITLE "2:cjc143_1960"
    INDEX 01 01:00:64
  TRACK 66 AUDIO
    TITLE "0:"
    INDEX 01 01:02:22
  TRACK 67 AUDIO
    TITLE "2:cjc143_1961"
    INDEX 01 01:02:34
  TRACK 68 AUDIO
    TITLE "0:"
    INDEX 01 01:04:39
  TRACK 69 AUDIO
    TITLE "2:cjc143_1962"
    INDEX 01 01:04:56
  TRACK 70 AUDIO
    TITLE "0:"
    INDEX 01 01:06:63
